<svg preserveAspectRatio="none" overflow="visible" style="display: block;" width="13" height="13" viewBox="0 0 13 13" fill="none" xmlns="http://www.w3.org/2000/svg">
<g id="icon">
<path id="Vector" d="M8.66667 7.04167L11.4958 8.92775C11.5366 8.95489 11.584 8.97046 11.6329 8.9728C11.6818 8.97514 11.7305 8.96417 11.7737 8.94104C11.8169 8.91792 11.853 8.88352 11.8781 8.84149C11.9033 8.79947 11.9166 8.75141 11.9167 8.70242V4.26292C11.9167 4.21526 11.9041 4.16845 11.8803 4.1272C11.8564 4.08595 11.8221 4.05173 11.7807 4.028C11.7394 4.00426 11.6926 3.99184 11.6449 3.992C11.5973 3.99217 11.5505 4.0049 11.5093 4.02892L8.66667 5.6875" stroke="#9AA3C0" stroke-width="1.66667" stroke-linecap="round" stroke-linejoin="round"/>
<path id="Vector_2" d="M7.58333 3.25H2.16667C1.56836 3.25 1.08333 3.73502 1.08333 4.33333V8.66667C1.08333 9.26498 1.56836 9.75 2.16667 9.75H7.58333C8.18164 9.75 8.66667 9.26498 8.66667 8.66667V4.33333C8.66667 3.73502 8.18164 3.25 7.58333 3.25Z" stroke="#9AA3C0" stroke-width="1.66667" stroke-linecap="round" stroke-linejoin="round"/>
</g>
</svg>
